Motion_pl03
version=1
nRows=10
nColumns=43
inDegrees=yes
endheader
time	pelvis_tilt	pelvis_list	pelvis_rotation	pelvis_tx	pelvis_ty	pelvis_tz	hip_flexion_r	hip_adduction_r	hip_rotation_r	knee_angle_r	ankle_angle_r	subtalar_angle_r	mtp_angle_r	hip_flexion_l	hip_adduction_l	hip_rotation_l	knee_angle_l	ankle_angle_l	subtalar_angle_l	mtp_angle_l	lumbar_extension	lumbar_bending	lumbar_rotation	neck_flexion	neck_lateral_bending	neck_rotation	arm_flex_r	arm_add_r	arm_rot_r	elbow_flex_r	pro_sup_r	wrist_flex_r	wrist_dev_r	hand_finger_flex_r	arm_flex_l	arm_add_l	arm_rot_l	elbow_flex_l	pro_sup_l	wrist_flex_l	wrist_dev_l	hand_finger_flex_l
      2.18750000	     -2.66075094	    -24.65573640	     85.87922537	      0.00798899	      1.68094690	      1.73204437	     99.59135811	     -1.51659815	      6.63293691	   -122.97078337	      7.66490333	      5.52627072	     30.49509297	     95.73929104	    -10.02328885	      7.54805873	   -124.27486185	     27.76145830	      8.98997336	      5.32123193	    -55.01147925	     -4.46262343	     -1.17814091	     38.44905110	      4.25189092	     -0.29647362	      1.84260984	    -16.84239296	    -16.91279387	     77.29952145	    112.99773266	    -15.63784130	    -13.90990740	     27.87415506	     -1.03807376	    -17.71837203	    -25.21137337	     91.31064665	     99.97697316	     -9.98038988	     -3.80663310	     28.57503704
      2.19000000	     -2.69744616	    -24.61554878	     85.83508554	      0.00767977	      1.68032335	      1.73137529	     99.60375860	     -1.54223582	      6.70480900	   -123.12905870	      7.95088648	      5.67734535	     30.52117181	     95.67262461	     -9.96797745	      7.55688511	   -124.41696023	     27.76881714	      9.01179510	      5.31211176	    -54.98456679	     -4.47482757	     -1.17346218	     38.53640325	      4.34091275	     -0.14948616	      2.36016555	    -17.26527301	    -16.52668781	     77.21082637	    112.83984811	    -15.48555870	    -13.82241000	     27.94398324	     -0.31194112	    -17.96023481	    -24.74837559	     90.87753655	     99.99382973	     -9.93160507	     -3.58882984	     28.69241080
      2.19250000	     -2.69235687	    -24.60994403	     85.81258489	      0.00757291	      1.67935075	      1.73092764	     99.65906394	     -1.55480513	      6.71755800	   -123.30780295	      7.98573445	      5.70506357	     30.52567552	     95.75322168	     -9.98678317	      7.58544614	   -124.61692228	     27.79450707	      9.00681209	      5.31414311	    -54.98143600	     -4.50082577	     -1.22122752	     38.49608559	      4.34487052	     -0.13432342	      2.79527776	    -17.31201241	    -16.50944675	     77.41878104	    112.79744617	    -15.49059622	    -13.85603575	     27.93969294	      0.07537371	    -18.00239343	    -24.64897201	     91.01957987	     99.99097052	     -9.92022713	     -3.60279806	     28.70888619
      2.19500000	     -2.69030881	    -24.59829295	     85.77878058	      0.00741487	      1.67838424	      1.73045854	     99.71479856	     -1.55424349	      6.74474957	   -123.48540061	      8.04004046	      5.73672678	     30.53044123	     95.83048211	     -9.99274207	      7.63021714	   -124.83648614	     27.81998372	      9.00570437	      5.31695014	    -54.97254333	     -4.52848010	     -1.27536078	     38.47938344	      4.35729820	     -0.11220751	      3.26245309	    -17.38043933	    -16.45501475	     77.60938739	    112.75624512	    -15.48333452	    -13.88068120	     27.93510409	      0.50438896	    -18.07487868	    -24.52657197	     91.09285076	     99.99790723	     -9.90141661	     -3.59189645	     28.72570824
      2.19750000	     -2.74254424	    -24.53107611	     85.73375387	      0.00728187	      1.67784129	      1.72975199	     99.68710194	     -1.54304409	      6.81099236	   -123.63784720	      8.32563374	      5.92133374	     30.55664581	     95.72342729	     -9.95636187	      7.63073517	   -124.96234884	     27.82123313	      9.07572070	      5.31880325	    -54.97217998	     -4.57154129	     -1.29081889	     38.55228426	      4.43209716	      0.03098753	      3.85569856	    -17.71605589	    -16.08261591	     77.51646166	    112.56095309	    -15.36799573	    -13.73896915	     27.94160166	      1.31499766	    -18.36704370	    -24.05322047	     90.63059392	    100.08497669	     -9.81927974	     -3.31423049	     28.84948309
      2.20000000	     -2.74038450	    -24.51453220	     85.71749492	      0.00715561	      1.67681151	      1.72925910	     99.74183084	     -1.54499502	      6.83424715	   -123.82385372	      8.36570399	      5.94441191	     30.56071039	     95.79985896	     -9.98197334	      7.65964745	   -125.17572856	     27.85301238	      9.07384582	      5.32309949	    -54.96405837	     -4.59518500	     -1.33981448	     38.52046880	      4.43560346	      0.04017567	      4.31328014	    -17.74938615	    -16.05613596	     77.72554885	    112.52096109	    -15.37597816	    -13.76775563	     27.92674433	      1.73266079	    -18.40298041	    -23.94501925	     90.78824240	    100.09341223	     -9.80520144	     -3.32936524	     28.86438356
      2.20250000	     -2.79087078	    -24.43383978	     85.67841234	      0.00701131	      1.67628967	      1.72855290	     99.69648113	     -1.51756409	      6.91702217	   -123.96687393	      8.62845204	      6.09284429	     30.58589045	     95.68029171	     -9.94073493	      7.63940723	   -125.32895463	     27.91094261	      9.13558499	      5.33362137	    -55.00116835	     -4.64042000	     -1.35182027	     38.62307951	      4.50236175	      0.11401825	      4.94548800	    -18.01083892	    -15.75546562	     77.67283136	    112.32607868	    -15.31476465	    -13.61884935	     27.87678401	      2.52535911	    -18.66718775	    -23.52106485	     90.43144097	    100.22919549	     -9.76354206	     -3.09648107	     28.98039746
      2.20500000	     -2.78960834	    -24.41435268	     85.66252909	      0.00691531	      1.67522998	      1.72803276	     99.75295216	     -1.52762688	      6.93316215	   -124.15464229	      8.66509075	      6.11217160	     30.59012915	     95.75141314	     -9.97920608	      7.67082682	   -125.53983174	     27.94970796	      9.13163437	      5.33871097	    -54.98869262	     -4.67321806	     -1.41677559	     38.60367927	      4.50536465	      0.11746687	      5.41888744	    -18.04190926	    -15.71848932	     77.88411789	    112.28690596	    -15.32320079	    -13.64468837	     27.85456721	      2.96434166	    -18.69352454	    -23.39453416	     90.59188669	    100.24852226	     -9.75319455	     -3.11443308	     28.99540653
      2.20750000	     -2.79310862	    -24.40576379	     85.63296714	      0.00685035	      1.67424455	      1.72748493	     99.80854831	     -1.51724994	      6.96120720	   -124.32650805	      8.71916681	      6.13621583	     30.59519977	     95.81359785	     -9.99053763	      7.69872243	   -125.77063174	     27.99749992	      9.13153632	      5.34489705	    -54.96938217	     -4.70881221	     -1.46798471	     38.62856524	      4.51990096	      0.12457895	      5.96514607	    -18.11399769	    -15.63921552	     78.06262222	    112.24697720	    -15.31858092	    -13.65217663	     27.82747712	      3.46677633	    -18.77539143	    -23.24032436	     90.65683656	    100.28820145	     -9.74359927	     -3.10233597	     29.01092760
      2.21000000	     -2.85752036	    -24.36904094	     85.55966267	      0.00666829	      1.67397260	      1.72678489	     99.77321739	     -1.52239807	      7.02620143	   -124.40686720	      8.86365223	      6.27189988	     30.62117780	     95.66327721	    -10.00517856	      7.63961666	   -125.81236612	     28.11973871	      9.17922756	      5.35881371	    -54.96597360	     -4.78040320	     -1.47089688	     38.92655144	      4.60174204	      0.17832874	      6.74141980	    -18.47735352	    -15.17116033	     77.82262696	    112.07614755	    -15.21934078	    -13.41029329	     27.72426723	      4.44169614	    -19.11052059	    -22.64344186	     90.12205043	    100.54676124	     -9.74008023	     -2.84177928	     29.11478172
